<?xml version="1.0" encoding="UTF-8" standalone="no"?><svg xmlns="http://www.w3.org/2000/svg" xmlns:xlink="http://www.w3.org/1999/xlink" contentScriptType="application/ecmascript" contentStyleType="text/css" height="1823px" preserveAspectRatio="none" style="width:2215px;height:1823px;" version="1.1" viewBox="0 0 2215 1823" width="2215px" zoomAndPan="magnify"><defs><filter height="300%" id="frce0ibyeq4lk" width="300%" x="-1" y="-1"><feGaussianBlur result="blurOut" stdDeviation="2.0"/><feColorMatrix in="blurOut" result="blurOut2" type="matrix" values="0 0 0 0 0 0 0 0 0 0 0 0 0 0 0 0 0 0 .4 0"/><feOffset dx="4.0" dy="4.0" in="blurOut2" result="blurOut3"/><feBlend in="SourceGraphic" in2="blurOut3" mode="normal"/></filter></defs><g><text fill="#000000" font-family="sans-serif" font-size="14" font-weight="bold" lengthAdjust="spacingAndGlyphs" textLength="102" x="1057.75" y="22.9951">flow diagram</text><rect fill="#FFFFFF" filter="url(#frce0ibyeq4lk)" height="265.3281" style="stroke: #000000; stroke-width: 2.0;" width="805" x="13" y="133.5938"/><rect fill="#FFFFFF" filter="url(#frce0ibyeq4lk)" height="133.6641" style="stroke: #000000; stroke-width: 2.0;" width="905.5" x="255.5" y="471.1875"/><rect fill="#FFFFFF" filter="url(#frce0ibyeq4lk)" height="191.9297" style="stroke: #000000; stroke-width: 2.0;" width="1645.5" x="255.5" y="618.8516"/><rect fill="#FFFFFF" filter="url(#frce0ibyeq4lk)" height="276.1953" style="stroke: #000000; stroke-width: 2.0;" width="1155" x="617" y="853.9141"/><rect fill="#FFFFFF" filter="url(#frce0ibyeq4lk)" height="191.9297" style="stroke: #000000; stroke-width: 2.0;" width="1645.5" x="255.5" y="1144.1094"/><rect fill="#FFFFFF" filter="url(#frce0ibyeq4lk)" height="133.6641" style="stroke: #000000; stroke-width: 2.0;" width="650.5" x="1554" y="1379.1719"/><rect fill="#FFFFFF" filter="url(#frce0ibyeq4lk)" height="133.6641" style="stroke: #000000; stroke-width: 2.0;" width="2191.5" x="13" y="1585.1016"/><line style="stroke: #A80036; stroke-width: 1.0; stroke-dasharray: 5.0,5.0;" x1="61" x2="61" y1="116.5938" y2="1735.7656"/><line style="stroke: #A80036; stroke-width: 1.0; stroke-dasharray: 5.0,5.0;" x1="305.5" x2="305.5" y1="116.5938" y2="1735.7656"/><line style="stroke: #A80036; stroke-width: 1.0; stroke-dasharray: 5.0,5.0;" x1="513.5" x2="513.5" y1="116.5938" y2="1735.7656"/><line style="stroke: #A80036; stroke-width: 1.0; stroke-dasharray: 5.0,5.0;" x1="717" x2="717" y1="116.5938" y2="1735.7656"/><line style="stroke: #A80036; stroke-width: 1.0; stroke-dasharray: 5.0,5.0;" x1="888" x2="888" y1="116.5938" y2="1735.7656"/><line style="stroke: #A80036; stroke-width: 1.0; stroke-dasharray: 5.0,5.0;" x1="1060" x2="1060" y1="116.5938" y2="1735.7656"/><line style="stroke: #A80036; stroke-width: 1.0; stroke-dasharray: 5.0,5.0;" x1="1243" x2="1243" y1="116.5938" y2="1735.7656"/><line style="stroke: #A80036; stroke-width: 1.0; stroke-dasharray: 5.0,5.0;" x1="1455" x2="1455" y1="116.5938" y2="1735.7656"/><line style="stroke: #A80036; stroke-width: 1.0; stroke-dasharray: 5.0,5.0;" x1="1663" x2="1663" y1="116.5938" y2="1735.7656"/><line style="stroke: #A80036; stroke-width: 1.0; stroke-dasharray: 5.0,5.0;" x1="1831" x2="1831" y1="116.5938" y2="1735.7656"/><line style="stroke: #A80036; stroke-width: 1.0; stroke-dasharray: 5.0,5.0;" x1="1968" x2="1968" y1="116.5938" y2="1735.7656"/><line style="stroke: #A80036; stroke-width: 1.0; stroke-dasharray: 5.0,5.0;" x1="2136.5" x2="2136.5" y1="116.5938" y2="1735.7656"/><text fill="#000000" font-family="sans-serif" font-size="14" lengthAdjust="spacingAndGlyphs" textLength="71" x="23" y="113.292">Developer</text><ellipse cx="61.5" cy="43.2969" fill="#FEFECE" filter="url(#frce0ibyeq4lk)" rx="8" ry="8" style="stroke: #A80036; stroke-width: 2.0;"/><path d="M61.5,51.2969 L61.5,78.2969 M48.5,59.2969 L74.5,59.2969 M61.5,78.2969 L48.5,93.2969 M61.5,78.2969 L74.5,93.2969 " fill="#FEFECE" filter="url(#frce0ibyeq4lk)" style="stroke: #A80036; stroke-width: 2.0;"/><text fill="#000000" font-family="sans-serif" font-size="14" lengthAdjust="spacingAndGlyphs" textLength="71" x="23" y="1747.7607">Developer</text><ellipse cx="61.5" cy="1761.0625" fill="#FEFECE" filter="url(#frce0ibyeq4lk)" rx="8" ry="8" style="stroke: #A80036; stroke-width: 2.0;"/><path d="M61.5,1769.0625 L61.5,1796.0625 M48.5,1777.0625 L74.5,1777.0625 M61.5,1796.0625 L48.5,1811.0625 M61.5,1796.0625 L74.5,1811.0625 " fill="#FEFECE" filter="url(#frce0ibyeq4lk)" style="stroke: #A80036; stroke-width: 2.0;"/><text fill="#000000" font-family="sans-serif" font-size="14" lengthAdjust="spacingAndGlyphs" textLength="74" x="265.5" y="113.292">Repository</text><ellipse cx="305.5" cy="43.2969" fill="#FEFECE" filter="url(#frce0ibyeq4lk)" rx="8" ry="8" style="stroke: #A80036; stroke-width: 2.0;"/><path d="M305.5,51.2969 L305.5,78.2969 M292.5,59.2969 L318.5,59.2969 M305.5,78.2969 L292.5,93.2969 M305.5,78.2969 L318.5,93.2969 " fill="#FEFECE" filter="url(#frce0ibyeq4lk)" style="stroke: #A80036; stroke-width: 2.0;"/><text fill="#000000" font-family="sans-serif" font-size="14" lengthAdjust="spacingAndGlyphs" textLength="74" x="265.5" y="1747.7607">Repository</text><ellipse cx="305.5" cy="1761.0625" fill="#FEFECE" filter="url(#frce0ibyeq4lk)" rx="8" ry="8" style="stroke: #A80036; stroke-width: 2.0;"/><path d="M305.5,1769.0625 L305.5,1796.0625 M292.5,1777.0625 L318.5,1777.0625 M305.5,1796.0625 L292.5,1811.0625 M305.5,1796.0625 L318.5,1811.0625 " fill="#FEFECE" filter="url(#frce0ibyeq4lk)" style="stroke: #A80036; stroke-width: 2.0;"/><rect fill="#FEFECE" filter="url(#frce0ibyeq4lk)" height="46.5938" style="stroke: #A80036; stroke-width: 1.5;" width="96" x="465.5" y="61"/><rect fill="#FEFECE" filter="url(#frce0ibyeq4lk)" height="46.5938" style="stroke: #A80036; stroke-width: 1.5;" width="96" x="461.5" y="65"/><ellipse cx="479.5" cy="83" fill="#59AAD6" rx="11" ry="11" style="stroke: #A80036; stroke-width: 1.0;"/><path d="M479.5938,83.7969 L478.0469,88.5 L476.1719,88.5 L475.1094,80.2813 C474.6094,80.2188 474.3281,79.9531 474.3281,79.4688 C474.3281,79.1563 474.4844,78.875 474.7344,78.7031 C474.8906,78.6094 475.0156,78.5938 475.4531,78.5938 L477.6719,78.5938 C478.1563,78.5938 478.2969,78.625 478.4688,78.7344 C478.6875,78.9063 478.8125,79.1719 478.8125,79.4375 C478.8125,79.7344 478.6719,80.0156 478.4063,80.1719 C478.25,80.25 478.0938,80.2813 477.6719,80.2813 L476.8594,80.2813 L477.4688,84.9063 L478.7656,81.0781 L480.5313,81.0781 L481.8281,84.9063 L482.4219,80.2813 L481.5156,80.2813 C481.0938,80.2813 480.9063,80.25 480.75,80.1406 C480.5313,79.9688 480.4063,79.7188 480.4063,79.4375 C480.4063,79.1563 480.5469,78.8594 480.8125,78.7031 C480.9531,78.6094 481.0781,78.5938 481.5156,78.5938 L483.75,78.5938 C484.2031,78.5938 484.3594,78.625 484.5313,78.7344 C484.7344,78.9063 484.875,79.1719 484.875,79.4375 C484.875,79.8906 484.5781,80.2031 484.0781,80.2813 L483.0469,88.5 L481.1875,88.5 Z "/><text fill="#000000" font-family="sans-serif" font-size="14" lengthAdjust="spacingAndGlyphs" textLength="54" x="496.5" y="86">Worker:</text><text fill="#000000" font-family="sans-serif" font-size="14" lengthAdjust="spacingAndGlyphs" textLength="21" x="513" y="102.2969">API</text><rect fill="#FEFECE" filter="url(#frce0ibyeq4lk)" height="46.5938" style="stroke: #A80036; stroke-width: 1.5;" width="96" x="465.5" y="1734.7656"/><rect fill="#FEFECE" filter="url(#frce0ibyeq4lk)" height="46.5938" style="stroke: #A80036; stroke-width: 1.5;" width="96" x="461.5" y="1738.7656"/><ellipse cx="479.5" cy="1756.7656" fill="#59AAD6" rx="11" ry="11" style="stroke: #A80036; stroke-width: 1.0;"/><path d="M479.5938,1757.5625 L478.0469,1762.2656 L476.1719,1762.2656 L475.1094,1754.0469 C474.6094,1753.9844 474.3281,1753.7188 474.3281,1753.2344 C474.3281,1752.9219 474.4844,1752.6406 474.7344,1752.4688 C474.8906,1752.375 475.0156,1752.3594 475.4531,1752.3594 L477.6719,1752.3594 C478.1563,1752.3594 478.2969,1752.3906 478.4688,1752.5 C478.6875,1752.6719 478.8125,1752.9375 478.8125,1753.2031 C478.8125,1753.5 478.6719,1753.7813 478.4063,1753.9375 C478.25,1754.0156 478.0938,1754.0469 477.6719,1754.0469 L476.8594,1754.0469 L477.4688,1758.6719 L478.7656,1754.8438 L480.5313,1754.8438 L481.8281,1758.6719 L482.4219,1754.0469 L481.5156,1754.0469 C481.0938,1754.0469 480.9063,1754.0156 480.75,1753.9063 C480.5313,1753.7344 480.4063,1753.4844 480.4063,1753.2031 C480.4063,1752.9219 480.5469,1752.625 480.8125,1752.4688 C480.9531,1752.375 481.0781,1752.3594 481.5156,1752.3594 L483.75,1752.3594 C484.2031,1752.3594 484.3594,1752.3906 484.5313,1752.5 C484.7344,1752.6719 484.875,1752.9375 484.875,1753.2031 C484.875,1753.6563 484.5781,1753.9688 484.0781,1754.0469 L483.0469,1762.2656 L481.1875,1762.2656 Z "/><text fill="#000000" font-family="sans-serif" font-size="14" lengthAdjust="spacingAndGlyphs" textLength="54" x="496.5" y="1759.7656">Worker:</text><text fill="#000000" font-family="sans-serif" font-size="14" lengthAdjust="spacingAndGlyphs" textLength="21" x="513" y="1776.0625">API</text><rect fill="#FEFECE" filter="url(#frce0ibyeq4lk)" height="46.5938" style="stroke: #A80036; stroke-width: 1.5;" width="177" x="627" y="65"/><text fill="#000000" font-family="sans-serif" font-size="14" lengthAdjust="spacingAndGlyphs" textLength="55" x="688" y="84.9951">Service:</text><text fill="#000000" font-family="sans-serif" font-size="14" lengthAdjust="spacingAndGlyphs" textLength="163" x="634" y="101.292">Repository Config Store</text><rect fill="#FEFECE" filter="url(#frce0ibyeq4lk)" height="46.5938" style="stroke: #A80036; stroke-width: 1.5;" width="177" x="627" y="1734.7656"/><text fill="#000000" font-family="sans-serif" font-size="14" lengthAdjust="spacingAndGlyphs" textLength="55" x="688" y="1754.7607">Service:</text><text fill="#000000" font-family="sans-serif" font-size="14" lengthAdjust="spacingAndGlyphs" textLength="163" x="634" y="1771.0576">Repository Config Store</text><rect fill="#FEFECE" filter="url(#frce0ibyeq4lk)" height="46.5938" style="stroke: #A80036; stroke-width: 1.5;" width="137" x="818" y="65"/><ellipse cx="836" cy="83" fill="#FF6600" rx="11" ry="11" style="stroke: #A80036; stroke-width: 1.0;"/><path d="M834.6094,86.6094 L834.5313,87.0156 C834.9531,86.9375 835.1563,86.9219 835.4063,86.9219 C835.8438,86.9219 836.2969,87 836.8281,87.1406 C837.2188,87.25 837.3438,87.2656 837.5313,87.2656 C837.7813,87.2656 837.9375,87.2188 838.2656,87.0156 C838.6563,86.75 838.75,86.7188 838.9375,86.7188 C839.4375,86.7188 839.8125,87.0938 839.8125,87.5781 C839.8125,87.9219 839.6406,88.1719 839.1563,88.4375 C838.5469,88.8125 838.0781,88.9688 837.5469,88.9688 C837.125,88.9688 837.0625,88.9531 836.2344,88.625 C836.0469,88.5625 835.6563,88.4844 835.4219,88.4844 C835.0625,88.4844 834.0156,88.6563 833.2813,88.8438 C833.0781,88.8906 832.9063,88.9375 832.8125,88.9375 C832.3594,88.9375 831.9844,88.5156 831.9844,88.0469 C831.9844,87.7969 832.0625,87.6563 832.3281,87.4063 L833.3906,86.375 C832.1094,85.6563 831.5781,85.1875 831.1094,84.3906 C830.625,83.5625 830.3594,82.5781 830.3594,81.5313 C830.3594,78.6875 832.4844,76.3438 835.0938,76.3438 C837.7031,76.3438 839.8438,78.6875 839.8438,81.5 C839.8438,83.3906 838.9063,85.0781 837.2969,86.0469 C836.6406,86.4375 835.8594,86.625 834.9063,86.625 C834.875,86.625 834.75,86.625 834.6094,86.6094 Z M835.0938,78.0469 C833.4375,78.0469 832.0625,79.625 832.0625,81.5469 C832.0625,83.4531 833.4375,85.0625 835.0938,85.0625 C836.75,85.0625 838.1406,83.4688 838.1406,81.6094 C838.1406,79.625 836.7813,78.0469 835.0938,78.0469 Z "/><text fill="#000000" font-family="sans-serif" font-size="14" lengthAdjust="spacingAndGlyphs" textLength="52" x="874.5" y="86">Queue:</text><text fill="#000000" font-family="sans-serif" font-size="14" lengthAdjust="spacingAndGlyphs" textLength="95" x="853" y="102.2969">runInspection</text><rect fill="#FEFECE" filter="url(#frce0ibyeq4lk)" height="46.5938" style="stroke: #A80036; stroke-width: 1.5;" width="137" x="818" y="1734.7656"/><ellipse cx="836" cy="1752.7656" fill="#FF6600" rx="11" ry="11" style="stroke: #A80036; stroke-width: 1.0;"/><path d="M834.6094,1756.375 L834.5313,1756.7813 C834.9531,1756.7031 835.1563,1756.6875 835.4063,1756.6875 C835.8438,1756.6875 836.2969,1756.7656 836.8281,1756.9063 C837.2188,1757.0156 837.3438,1757.0313 837.5313,1757.0313 C837.7813,1757.0313 837.9375,1756.9844 838.2656,1756.7813 C838.6563,1756.5156 838.75,1756.4844 838.9375,1756.4844 C839.4375,1756.4844 839.8125,1756.8594 839.8125,1757.3438 C839.8125,1757.6875 839.6406,1757.9375 839.1563,1758.2031 C838.5469,1758.5781 838.0781,1758.7344 837.5469,1758.7344 C837.125,1758.7344 837.0625,1758.7188 836.2344,1758.3906 C836.0469,1758.3281 835.6563,1758.25 835.4219,1758.25 C835.0625,1758.25 834.0156,1758.4219 833.2813,1758.6094 C833.0781,1758.6563 832.9063,1758.7031 832.8125,1758.7031 C832.3594,1758.7031 831.9844,1758.2813 831.9844,1757.8125 C831.9844,1757.5625 832.0625,1757.4219 832.3281,1757.1719 L833.3906,1756.1406 C832.1094,1755.4219 831.5781,1754.9531 831.1094,1754.1563 C830.625,1753.3281 830.3594,1752.3438 830.3594,1751.2969 C830.3594,1748.4531 832.4844,1746.1094 835.0938,1746.1094 C837.7031,1746.1094 839.8438,1748.4531 839.8438,1751.2656 C839.8438,1753.1563 838.9063,1754.8438 837.2969,1755.8125 C836.6406,1756.2031 835.8594,1756.3906 834.9063,1756.3906 C834.875,1756.3906 834.75,1756.3906 834.6094,1756.375 Z M835.0938,1747.8125 C833.4375,1747.8125 832.0625,1749.3906 832.0625,1751.3125 C832.0625,1753.2188 833.4375,1754.8281 835.0938,1754.8281 C836.75,1754.8281 838.1406,1753.2344 838.1406,1751.375 C838.1406,1749.3906 836.7813,1747.8125 835.0938,1747.8125 Z "/><text fill="#000000" font-family="sans-serif" font-size="14" lengthAdjust="spacingAndGlyphs" textLength="52" x="874.5" y="1755.7656">Queue:</text><text fill="#000000" font-family="sans-serif" font-size="14" lengthAdjust="spacingAndGlyphs" textLength="95" x="853" y="1772.0625">runInspection</text><rect fill="#FEFECE" filter="url(#frce0ibyeq4lk)" height="46.5938" style="stroke: #A80036; stroke-width: 1.5;" width="178" x="969" y="65"/><ellipse cx="987" cy="83" fill="#FF6600" rx="11" ry="11" style="stroke: #A80036; stroke-width: 1.0;"/><path d="M985.6094,86.6094 L985.5313,87.0156 C985.9531,86.9375 986.1563,86.9219 986.4063,86.9219 C986.8438,86.9219 987.2969,87 987.8281,87.1406 C988.2188,87.25 988.3438,87.2656 988.5313,87.2656 C988.7813,87.2656 988.9375,87.2188 989.2656,87.0156 C989.6563,86.75 989.75,86.7188 989.9375,86.7188 C990.4375,86.7188 990.8125,87.0938 990.8125,87.5781 C990.8125,87.9219 990.6406,88.1719 990.1563,88.4375 C989.5469,88.8125 989.0781,88.9688 988.5469,88.9688 C988.125,88.9688 988.0625,88.9531 987.2344,88.625 C987.0469,88.5625 986.6563,88.4844 986.4219,88.4844 C986.0625,88.4844 985.0156,88.6563 984.2813,88.8438 C984.0781,88.8906 983.9063,88.9375 983.8125,88.9375 C983.3594,88.9375 982.9844,88.5156 982.9844,88.0469 C982.9844,87.7969 983.0625,87.6563 983.3281,87.4063 L984.3906,86.375 C983.1094,85.6563 982.5781,85.1875 982.1094,84.3906 C981.625,83.5625 981.3594,82.5781 981.3594,81.5313 C981.3594,78.6875 983.4844,76.3438 986.0938,76.3438 C988.7031,76.3438 990.8438,78.6875 990.8438,81.5 C990.8438,83.3906 989.9063,85.0781 988.2969,86.0469 C987.6406,86.4375 986.8594,86.625 985.9063,86.625 C985.875,86.625 985.75,86.625 985.6094,86.6094 Z M986.0938,78.0469 C984.4375,78.0469 983.0625,79.625 983.0625,81.5469 C983.0625,83.4531 984.4375,85.0625 986.0938,85.0625 C987.75,85.0625 989.1406,83.4688 989.1406,81.6094 C989.1406,79.625 987.7813,78.0469 986.0938,78.0469 Z "/><text fill="#000000" font-family="sans-serif" font-size="14" lengthAdjust="spacingAndGlyphs" textLength="52" x="1046" y="86">Queue:</text><text fill="#000000" font-family="sans-serif" font-size="14" lengthAdjust="spacingAndGlyphs" textLength="136" x="1004" y="102.2969">sendStatusPending</text><rect fill="#FEFECE" filter="url(#frce0ibyeq4lk)" height="46.5938" style="stroke: #A80036; stroke-width: 1.5;" width="178" x="969" y="1734.7656"/><ellipse cx="987" cy="1752.7656" fill="#FF6600" rx="11" ry="11" style="stroke: #A80036; stroke-width: 1.0;"/><path d="M985.6094,1756.375 L985.5313,1756.7813 C985.9531,1756.7031 986.1563,1756.6875 986.4063,1756.6875 C986.8438,1756.6875 987.2969,1756.7656 987.8281,1756.9063 C988.2188,1757.0156 988.3438,1757.0313 988.5313,1757.0313 C988.7813,1757.0313 988.9375,1756.9844 989.2656,1756.7813 C989.6563,1756.5156 989.75,1756.4844 989.9375,1756.4844 C990.4375,1756.4844 990.8125,1756.8594 990.8125,1757.3438 C990.8125,1757.6875 990.6406,1757.9375 990.1563,1758.2031 C989.5469,1758.5781 989.0781,1758.7344 988.5469,1758.7344 C988.125,1758.7344 988.0625,1758.7188 987.2344,1758.3906 C987.0469,1758.3281 986.6563,1758.25 986.4219,1758.25 C986.0625,1758.25 985.0156,1758.4219 984.2813,1758.6094 C984.0781,1758.6563 983.9063,1758.7031 983.8125,1758.7031 C983.3594,1758.7031 982.9844,1758.2813 982.9844,1757.8125 C982.9844,1757.5625 983.0625,1757.4219 983.3281,1757.1719 L984.3906,1756.1406 C983.1094,1755.4219 982.5781,1754.9531 982.1094,1754.1563 C981.625,1753.3281 981.3594,1752.3438 981.3594,1751.2969 C981.3594,1748.4531 983.4844,1746.1094 986.0938,1746.1094 C988.7031,1746.1094 990.8438,1748.4531 990.8438,1751.2656 C990.8438,1753.1563 989.9063,1754.8438 988.2969,1755.8125 C987.6406,1756.2031 986.8594,1756.3906 985.9063,1756.3906 C985.875,1756.3906 985.75,1756.3906 985.6094,1756.375 Z M986.0938,1747.8125 C984.4375,1747.8125 983.0625,1749.3906 983.0625,1751.3125 C983.0625,1753.2188 984.4375,1754.8281 986.0938,1754.8281 C987.75,1754.8281 989.1406,1753.2344 989.1406,1751.375 C989.1406,1749.3906 987.7813,1747.8125 986.0938,1747.8125 Z "/><text fill="#000000" font-family="sans-serif" font-size="14" lengthAdjust="spacingAndGlyphs" textLength="52" x="1046" y="1755.7656">Queue:</text><text fill="#000000" font-family="sans-serif" font-size="14" lengthAdjust="spacingAndGlyphs" textLength="136" x="1004" y="1772.0625">sendStatusPending</text><rect fill="#FEFECE" filter="url(#frce0ibyeq4lk)" height="46.5938" style="stroke: #A80036; stroke-width: 1.5;" width="157" x="1165" y="61"/><rect fill="#FEFECE" filter="url(#frce0ibyeq4lk)" height="46.5938" style="stroke: #A80036; stroke-width: 1.5;" width="157" x="1161" y="65"/><ellipse cx="1179" cy="83" fill="#59AAD6" rx="11" ry="11" style="stroke: #A80036; stroke-width: 1.0;"/><path d="M1179.0938,83.7969 L1177.5469,88.5 L1175.6719,88.5 L1174.6094,80.2813 C1174.1094,80.2188 1173.8281,79.9531 1173.8281,79.4688 C1173.8281,79.1563 1173.9844,78.875 1174.2344,78.7031 C1174.3906,78.6094 1174.5156,78.5938 1174.9531,78.5938 L1177.1719,78.5938 C1177.6563,78.5938 1177.7969,78.625 1177.9688,78.7344 C1178.1875,78.9063 1178.3125,79.1719 1178.3125,79.4375 C1178.3125,79.7344 1178.1719,80.0156 1177.9063,80.1719 C1177.75,80.25 1177.5938,80.2813 1177.1719,80.2813 L1176.3594,80.2813 L1176.9688,84.9063 L1178.2656,81.0781 L1180.0313,81.0781 L1181.3281,84.9063 L1181.9219,80.2813 L1181.0156,80.2813 C1180.5938,80.2813 1180.4063,80.25 1180.25,80.1406 C1180.0313,79.9688 1179.9063,79.7188 1179.9063,79.4375 C1179.9063,79.1563 1180.0469,78.8594 1180.3125,78.7031 C1180.4531,78.6094 1180.5781,78.5938 1181.0156,78.5938 L1183.25,78.5938 C1183.7031,78.5938 1183.8594,78.625 1184.0313,78.7344 C1184.2344,78.9063 1184.375,79.1719 1184.375,79.4375 C1184.375,79.8906 1184.0781,80.2031 1183.5781,80.2813 L1182.5469,88.5 L1180.6875,88.5 Z "/><text fill="#000000" font-family="sans-serif" font-size="14" lengthAdjust="spacingAndGlyphs" textLength="54" x="1226.5" y="86">Worker:</text><text fill="#000000" font-family="sans-serif" font-size="14" lengthAdjust="spacingAndGlyphs" textLength="115" x="1196" y="102.2969">Code Fixer (PHP)</text><rect fill="#FEFECE" filter="url(#frce0ibyeq4lk)" height="46.5938" style="stroke: #A80036; stroke-width: 1.5;" width="157" x="1165" y="1734.7656"/><rect fill="#FEFECE" filter="url(#frce0ibyeq4lk)" height="46.5938" style="stroke: #A80036; stroke-width: 1.5;" width="157" x="1161" y="1738.7656"/><ellipse cx="1179" cy="1756.7656" fill="#59AAD6" rx="11" ry="11" style="stroke: #A80036; stroke-width: 1.0;"/><path d="M1179.0938,1757.5625 L1177.5469,1762.2656 L1175.6719,1762.2656 L1174.6094,1754.0469 C1174.1094,1753.9844 1173.8281,1753.7188 1173.8281,1753.2344 C1173.8281,1752.9219 1173.9844,1752.6406 1174.2344,1752.4688 C1174.3906,1752.375 1174.5156,1752.3594 1174.9531,1752.3594 L1177.1719,1752.3594 C1177.6563,1752.3594 1177.7969,1752.3906 1177.9688,1752.5 C1178.1875,1752.6719 1178.3125,1752.9375 1178.3125,1753.2031 C1178.3125,1753.5 1178.1719,1753.7813 1177.9063,1753.9375 C1177.75,1754.0156 1177.5938,1754.0469 1177.1719,1754.0469 L1176.3594,1754.0469 L1176.9688,1758.6719 L1178.2656,1754.8438 L1180.0313,1754.8438 L1181.3281,1758.6719 L1181.9219,1754.0469 L1181.0156,1754.0469 C1180.5938,1754.0469 1180.4063,1754.0156 1180.25,1753.9063 C1180.0313,1753.7344 1179.9063,1753.4844 1179.9063,1753.2031 C1179.9063,1752.9219 1180.0469,1752.625 1180.3125,1752.4688 C1180.4531,1752.375 1180.5781,1752.3594 1181.0156,1752.3594 L1183.25,1752.3594 C1183.7031,1752.3594 1183.8594,1752.3906 1184.0313,1752.5 C1184.2344,1752.6719 1184.375,1752.9375 1184.375,1753.2031 C1184.375,1753.6563 1184.0781,1753.9688 1183.5781,1754.0469 L1182.5469,1762.2656 L1180.6875,1762.2656 Z "/><text fill="#000000" font-family="sans-serif" font-size="14" lengthAdjust="spacingAndGlyphs" textLength="54" x="1226.5" y="1759.7656">Worker:</text><text fill="#000000" font-family="sans-serif" font-size="14" lengthAdjust="spacingAndGlyphs" textLength="115" x="1196" y="1776.0625">Code Fixer (PHP)</text><rect fill="#FEFECE" filter="url(#frce0ibyeq4lk)" height="46.5938" style="stroke: #A80036; stroke-width: 1.5;" width="193" x="1357" y="65"/><ellipse cx="1375" cy="83" fill="#FF6600" rx="11" ry="11" style="stroke: #A80036; stroke-width: 1.0;"/><path d="M1373.6094,86.6094 L1373.5313,87.0156 C1373.9531,86.9375 1374.1563,86.9219 1374.4063,86.9219 C1374.8438,86.9219 1375.2969,87 1375.8281,87.1406 C1376.2188,87.25 1376.3438,87.2656 1376.5313,87.2656 C1376.7813,87.2656 1376.9375,87.2188 1377.2656,87.0156 C1377.6563,86.75 1377.75,86.7188 1377.9375,86.7188 C1378.4375,86.7188 1378.8125,87.0938 1378.8125,87.5781 C1378.8125,87.9219 1378.6406,88.1719 1378.1563,88.4375 C1377.5469,88.8125 1377.0781,88.9688 1376.5469,88.9688 C1376.125,88.9688 1376.0625,88.9531 1375.2344,88.625 C1375.0469,88.5625 1374.6563,88.4844 1374.4219,88.4844 C1374.0625,88.4844 1373.0156,88.6563 1372.2813,88.8438 C1372.0781,88.8906 1371.9063,88.9375 1371.8125,88.9375 C1371.3594,88.9375 1370.9844,88.5156 1370.9844,88.0469 C1370.9844,87.7969 1371.0625,87.6563 1371.3281,87.4063 L1372.3906,86.375 C1371.1094,85.6563 1370.5781,85.1875 1370.1094,84.3906 C1369.625,83.5625 1369.3594,82.5781 1369.3594,81.5313 C1369.3594,78.6875 1371.4844,76.3438 1374.0938,76.3438 C1376.7031,76.3438 1378.8438,78.6875 1378.8438,81.5 C1378.8438,83.3906 1377.9063,85.0781 1376.2969,86.0469 C1375.6406,86.4375 1374.8594,86.625 1373.9063,86.625 C1373.875,86.625 1373.75,86.625 1373.6094,86.6094 Z M1374.0938,78.0469 C1372.4375,78.0469 1371.0625,79.625 1371.0625,81.5469 C1371.0625,83.4531 1372.4375,85.0625 1374.0938,85.0625 C1375.75,85.0625 1377.1406,83.4688 1377.1406,81.6094 C1377.1406,79.625 1375.7813,78.0469 1374.0938,78.0469 Z "/><text fill="#000000" font-family="sans-serif" font-size="14" lengthAdjust="spacingAndGlyphs" textLength="52" x="1441.5" y="86">Queue:</text><text fill="#000000" font-family="sans-serif" font-size="14" lengthAdjust="spacingAndGlyphs" textLength="151" x="1392" y="102.2969">sendInspectionStatus</text><rect fill="#FEFECE" filter="url(#frce0ibyeq4lk)" height="46.5938" style="stroke: #A80036; stroke-width: 1.5;" width="193" x="1357" y="1734.7656"/><ellipse cx="1375" cy="1752.7656" fill="#FF6600" rx="11" ry="11" style="stroke: #A80036; stroke-width: 1.0;"/><path d="M1373.6094,1756.375 L1373.5313,1756.7813 C1373.9531,1756.7031 1374.1563,1756.6875 1374.4063,1756.6875 C1374.8438,1756.6875 1375.2969,1756.7656 1375.8281,1756.9063 C1376.2188,1757.0156 1376.3438,1757.0313 1376.5313,1757.0313 C1376.7813,1757.0313 1376.9375,1756.9844 1377.2656,1756.7813 C1377.6563,1756.5156 1377.75,1756.4844 1377.9375,1756.4844 C1378.4375,1756.4844 1378.8125,1756.8594 1378.8125,1757.3438 C1378.8125,1757.6875 1378.6406,1757.9375 1378.1563,1758.2031 C1377.5469,1758.5781 1377.0781,1758.7344 1376.5469,1758.7344 C1376.125,1758.7344 1376.0625,1758.7188 1375.2344,1758.3906 C1375.0469,1758.3281 1374.6563,1758.25 1374.4219,1758.25 C1374.0625,1758.25 1373.0156,1758.4219 1372.2813,1758.6094 C1372.0781,1758.6563 1371.9063,1758.7031 1371.8125,1758.7031 C1371.3594,1758.7031 1370.9844,1758.2813 1370.9844,1757.8125 C1370.9844,1757.5625 1371.0625,1757.4219 1371.3281,1757.1719 L1372.3906,1756.1406 C1371.1094,1755.4219 1370.5781,1754.9531 1370.1094,1754.1563 C1369.625,1753.3281 1369.3594,1752.3438 1369.3594,1751.2969 C1369.3594,1748.4531 1371.4844,1746.1094 1374.0938,1746.1094 C1376.7031,1746.1094 1378.8438,1748.4531 1378.8438,1751.2656 C1378.8438,1753.1563 1377.9063,1754.8438 1376.2969,1755.8125 C1375.6406,1756.2031 1374.8594,1756.3906 1373.9063,1756.3906 C1373.875,1756.3906 1373.75,1756.3906 1373.6094,1756.375 Z M1374.0938,1747.8125 C1372.4375,1747.8125 1371.0625,1749.3906 1371.0625,1751.3125 C1371.0625,1753.2188 1372.4375,1754.8281 1374.0938,1754.8281 C1375.75,1754.8281 1377.1406,1753.2344 1377.1406,1751.375 C1377.1406,1749.3906 1375.7813,1747.8125 1374.0938,1747.8125 Z "/><text fill="#000000" font-family="sans-serif" font-size="14" lengthAdjust="spacingAndGlyphs" textLength="52" x="1441.5" y="1755.7656">Queue:</text><text fill="#000000" font-family="sans-serif" font-size="14" lengthAdjust="spacingAndGlyphs" textLength="151" x="1392" y="1772.0625">sendInspectionStatus</text><rect fill="#FEFECE" filter="url(#frce0ibyeq4lk)" height="46.5938" style="stroke: #A80036; stroke-width: 1.5;" width="194" x="1564" y="65"/><ellipse cx="1582" cy="83" fill="#FF6600" rx="11" ry="11" style="stroke: #A80036; stroke-width: 1.0;"/><path d="M1580.6094,86.6094 L1580.5313,87.0156 C1580.9531,86.9375 1581.1563,86.9219 1581.4063,86.9219 C1581.8438,86.9219 1582.2969,87 1582.8281,87.1406 C1583.2188,87.25 1583.3438,87.2656 1583.5313,87.2656 C1583.7813,87.2656 1583.9375,87.2188 1584.2656,87.0156 C1584.6563,86.75 1584.75,86.7188 1584.9375,86.7188 C1585.4375,86.7188 1585.8125,87.0938 1585.8125,87.5781 C1585.8125,87.9219 1585.6406,88.1719 1585.1563,88.4375 C1584.5469,88.8125 1584.0781,88.9688 1583.5469,88.9688 C1583.125,88.9688 1583.0625,88.9531 1582.2344,88.625 C1582.0469,88.5625 1581.6563,88.4844 1581.4219,88.4844 C1581.0625,88.4844 1580.0156,88.6563 1579.2813,88.8438 C1579.0781,88.8906 1578.9063,88.9375 1578.8125,88.9375 C1578.3594,88.9375 1577.9844,88.5156 1577.9844,88.0469 C1577.9844,87.7969 1578.0625,87.6563 1578.3281,87.4063 L1579.3906,86.375 C1578.1094,85.6563 1577.5781,85.1875 1577.1094,84.3906 C1576.625,83.5625 1576.3594,82.5781 1576.3594,81.5313 C1576.3594,78.6875 1578.4844,76.3438 1581.0938,76.3438 C1583.7031,76.3438 1585.8438,78.6875 1585.8438,81.5 C1585.8438,83.3906 1584.9063,85.0781 1583.2969,86.0469 C1582.6406,86.4375 1581.8594,86.625 1580.9063,86.625 C1580.875,86.625 1580.75,86.625 1580.6094,86.6094 Z M1581.0938,78.0469 C1579.4375,78.0469 1578.0625,79.625 1578.0625,81.5469 C1578.0625,83.4531 1579.4375,85.0625 1581.0938,85.0625 C1582.75,85.0625 1584.1406,83.4688 1584.1406,81.6094 C1584.1406,79.625 1582.7813,78.0469 1581.0938,78.0469 Z "/><text fill="#000000" font-family="sans-serif" font-size="14" lengthAdjust="spacingAndGlyphs" textLength="52" x="1649" y="86">Queue:</text><text fill="#000000" font-family="sans-serif" font-size="14" lengthAdjust="spacingAndGlyphs" textLength="152" x="1599" y="102.2969">storeInspectionResult</text><rect fill="#FEFECE" filter="url(#frce0ibyeq4lk)" height="46.5938" style="stroke: #A80036; stroke-width: 1.5;" width="194" x="1564" y="1734.7656"/><ellipse cx="1582" cy="1752.7656" fill="#FF6600" rx="11" ry="11" style="stroke: #A80036; stroke-width: 1.0;"/><path d="M1580.6094,1756.375 L1580.5313,1756.7813 C1580.9531,1756.7031 1581.1563,1756.6875 1581.4063,1756.6875 C1581.8438,1756.6875 1582.2969,1756.7656 1582.8281,1756.9063 C1583.2188,1757.0156 1583.3438,1757.0313 1583.5313,1757.0313 C1583.7813,1757.0313 1583.9375,1756.9844 1584.2656,1756.7813 C1584.6563,1756.5156 1584.75,1756.4844 1584.9375,1756.4844 C1585.4375,1756.4844 1585.8125,1756.8594 1585.8125,1757.3438 C1585.8125,1757.6875 1585.6406,1757.9375 1585.1563,1758.2031 C1584.5469,1758.5781 1584.0781,1758.7344 1583.5469,1758.7344 C1583.125,1758.7344 1583.0625,1758.7188 1582.2344,1758.3906 C1582.0469,1758.3281 1581.6563,1758.25 1581.4219,1758.25 C1581.0625,1758.25 1580.0156,1758.4219 1579.2813,1758.6094 C1579.0781,1758.6563 1578.9063,1758.7031 1578.8125,1758.7031 C1578.3594,1758.7031 1577.9844,1758.2813 1577.9844,1757.8125 C1577.9844,1757.5625 1578.0625,1757.4219 1578.3281,1757.1719 L1579.3906,1756.1406 C1578.1094,1755.4219 1577.5781,1754.9531 1577.1094,1754.1563 C1576.625,1753.3281 1576.3594,1752.3438 1576.3594,1751.2969 C1576.3594,1748.4531 1578.4844,1746.1094 1581.0938,1746.1094 C1583.7031,1746.1094 1585.8438,1748.4531 1585.8438,1751.2656 C1585.8438,1753.1563 1584.9063,1754.8438 1583.2969,1755.8125 C1582.6406,1756.2031 1581.8594,1756.3906 1580.9063,1756.3906 C1580.875,1756.3906 1580.75,1756.3906 1580.6094,1756.375 Z M1581.0938,1747.8125 C1579.4375,1747.8125 1578.0625,1749.3906 1578.0625,1751.3125 C1578.0625,1753.2188 1579.4375,1754.8281 1581.0938,1754.8281 C1582.75,1754.8281 1584.1406,1753.2344 1584.1406,1751.375 C1584.1406,1749.3906 1582.7813,1747.8125 1581.0938,1747.8125 Z "/><text fill="#000000" font-family="sans-serif" font-size="14" lengthAdjust="spacingAndGlyphs" textLength="52" x="1649" y="1755.7656">Queue:</text><text fill="#000000" font-family="sans-serif" font-size="14" lengthAdjust="spacingAndGlyphs" textLength="152" x="1599" y="1772.0625">storeInspectionResult</text><rect fill="#FEFECE" filter="url(#frce0ibyeq4lk)" height="46.5938" style="stroke: #A80036; stroke-width: 1.5;" width="111" x="1776" y="61"/><rect fill="#FEFECE" filter="url(#frce0ibyeq4lk)" height="46.5938" style="stroke: #A80036; stroke-width: 1.5;" width="111" x="1772" y="65"/><ellipse cx="1790" cy="83" fill="#59AAD6" rx="11" ry="11" style="stroke: #A80036; stroke-width: 1.0;"/><path d="M1790.0938,83.7969 L1788.5469,88.5 L1786.6719,88.5 L1785.6094,80.2813 C1785.1094,80.2188 1784.8281,79.9531 1784.8281,79.4688 C1784.8281,79.1563 1784.9844,78.875 1785.2344,78.7031 C1785.3906,78.6094 1785.5156,78.5938 1785.9531,78.5938 L1788.1719,78.5938 C1788.6563,78.5938 1788.7969,78.625 1788.9688,78.7344 C1789.1875,78.9063 1789.3125,79.1719 1789.3125,79.4375 C1789.3125,79.7344 1789.1719,80.0156 1788.9063,80.1719 C1788.75,80.25 1788.5938,80.2813 1788.1719,80.2813 L1787.3594,80.2813 L1787.9688,84.9063 L1789.2656,81.0781 L1791.0313,81.0781 L1792.3281,84.9063 L1792.9219,80.2813 L1792.0156,80.2813 C1791.5938,80.2813 1791.4063,80.25 1791.25,80.1406 C1791.0313,79.9688 1790.9063,79.7188 1790.9063,79.4375 C1790.9063,79.1563 1791.0469,78.8594 1791.3125,78.7031 C1791.4531,78.6094 1791.5781,78.5938 1792.0156,78.5938 L1794.25,78.5938 C1794.7031,78.5938 1794.8594,78.625 1795.0313,78.7344 C1795.2344,78.9063 1795.375,79.1719 1795.375,79.4375 C1795.375,79.8906 1795.0781,80.2031 1794.5781,80.2813 L1793.5469,88.5 L1791.6875,88.5 Z "/><text fill="#000000" font-family="sans-serif" font-size="14" lengthAdjust="spacingAndGlyphs" textLength="54" x="1814.5" y="86">Worker:</text><text fill="#000000" font-family="sans-serif" font-size="14" lengthAdjust="spacingAndGlyphs" textLength="69" x="1807" y="102.2969">Status API</text><rect fill="#FEFECE" filter="url(#frce0ibyeq4lk)" height="46.5938" style="stroke: #A80036; stroke-width: 1.5;" width="111" x="1776" y="1734.7656"/><rect fill="#FEFECE" filter="url(#frce0ibyeq4lk)" height="46.5938" style="stroke: #A80036; stroke-width: 1.5;" width="111" x="1772" y="1738.7656"/><ellipse cx="1790" cy="1756.7656" fill="#59AAD6" rx="11" ry="11" style="stroke: #A80036; stroke-width: 1.0;"/><path d="M1790.0938,1757.5625 L1788.5469,1762.2656 L1786.6719,1762.2656 L1785.6094,1754.0469 C1785.1094,1753.9844 1784.8281,1753.7188 1784.8281,1753.2344 C1784.8281,1752.9219 1784.9844,1752.6406 1785.2344,1752.4688 C1785.3906,1752.375 1785.5156,1752.3594 1785.9531,1752.3594 L1788.1719,1752.3594 C1788.6563,1752.3594 1788.7969,1752.3906 1788.9688,1752.5 C1789.1875,1752.6719 1789.3125,1752.9375 1789.3125,1753.2031 C1789.3125,1753.5 1789.1719,1753.7813 1788.9063,1753.9375 C1788.75,1754.0156 1788.5938,1754.0469 1788.1719,1754.0469 L1787.3594,1754.0469 L1787.9688,1758.6719 L1789.2656,1754.8438 L1791.0313,1754.8438 L1792.3281,1758.6719 L1792.9219,1754.0469 L1792.0156,1754.0469 C1791.5938,1754.0469 1791.4063,1754.0156 1791.25,1753.9063 C1791.0313,1753.7344 1790.9063,1753.4844 1790.9063,1753.2031 C1790.9063,1752.9219 1791.0469,1752.625 1791.3125,1752.4688 C1791.4531,1752.375 1791.5781,1752.3594 1792.0156,1752.3594 L1794.25,1752.3594 C1794.7031,1752.3594 1794.8594,1752.3906 1795.0313,1752.5 C1795.2344,1752.6719 1795.375,1752.9375 1795.375,1753.2031 C1795.375,1753.6563 1795.0781,1753.9688 1794.5781,1754.0469 L1793.5469,1762.2656 L1791.6875,1762.2656 Z "/><text fill="#000000" font-family="sans-serif" font-size="14" lengthAdjust="spacingAndGlyphs" textLength="54" x="1814.5" y="1759.7656">Worker:</text><text fill="#000000" font-family="sans-serif" font-size="14" lengthAdjust="spacingAndGlyphs" textLength="69" x="1807" y="1776.0625">Status API</text><rect fill="#FEFECE" filter="url(#frce0ibyeq4lk)" height="46.5938" style="stroke: #A80036; stroke-width: 1.5;" width="127" x="1905" y="61"/><rect fill="#FEFECE" filter="url(#frce0ibyeq4lk)" height="46.5938" style="stroke: #A80036; stroke-width: 1.5;" width="127" x="1901" y="65"/><ellipse cx="1919" cy="83" fill="#59AAD6" rx="11" ry="11" style="stroke: #A80036; stroke-width: 1.0;"/><path d="M1919.0938,83.7969 L1917.5469,88.5 L1915.6719,88.5 L1914.6094,80.2813 C1914.1094,80.2188 1913.8281,79.9531 1913.8281,79.4688 C1913.8281,79.1563 1913.9844,78.875 1914.2344,78.7031 C1914.3906,78.6094 1914.5156,78.5938 1914.9531,78.5938 L1917.1719,78.5938 C1917.6563,78.5938 1917.7969,78.625 1917.9688,78.7344 C1918.1875,78.9063 1918.3125,79.1719 1918.3125,79.4375 C1918.3125,79.7344 1918.1719,80.0156 1917.9063,80.1719 C1917.75,80.25 1917.5938,80.2813 1917.1719,80.2813 L1916.3594,80.2813 L1916.9688,84.9063 L1918.2656,81.0781 L1920.0313,81.0781 L1921.3281,84.9063 L1921.9219,80.2813 L1921.0156,80.2813 C1920.5938,80.2813 1920.4063,80.25 1920.25,80.1406 C1920.0313,79.9688 1919.9063,79.7188 1919.9063,79.4375 C1919.9063,79.1563 1920.0469,78.8594 1920.3125,78.7031 C1920.4531,78.6094 1920.5781,78.5938 1921.0156,78.5938 L1923.25,78.5938 C1923.7031,78.5938 1923.8594,78.625 1924.0313,78.7344 C1924.2344,78.9063 1924.375,79.1719 1924.375,79.4375 C1924.375,79.8906 1924.0781,80.2031 1923.5781,80.2813 L1922.5469,88.5 L1920.6875,88.5 Z "/><text fill="#000000" font-family="sans-serif" font-size="14" lengthAdjust="spacingAndGlyphs" textLength="54" x="1951.5" y="86">Worker:</text><text fill="#000000" font-family="sans-serif" font-size="14" lengthAdjust="spacingAndGlyphs" textLength="85" x="1936" y="102.2969">Result Store</text><rect fill="#FEFECE" filter="url(#frce0ibyeq4lk)" height="46.5938" style="stroke: #A80036; stroke-width: 1.5;" width="127" x="1905" y="1734.7656"/><rect fill="#FEFECE" filter="url(#frce0ibyeq4lk)" height="46.5938" style="stroke: #A80036; stroke-width: 1.5;" width="127" x="1901" y="1738.7656"/><ellipse cx="1919" cy="1756.7656" fill="#59AAD6" rx="11" ry="11" style="stroke: #A80036; stroke-width: 1.0;"/><path d="M1919.0938,1757.5625 L1917.5469,1762.2656 L1915.6719,1762.2656 L1914.6094,1754.0469 C1914.1094,1753.9844 1913.8281,1753.7188 1913.8281,1753.2344 C1913.8281,1752.9219 1913.9844,1752.6406 1914.2344,1752.4688 C1914.3906,1752.375 1914.5156,1752.3594 1914.9531,1752.3594 L1917.1719,1752.3594 C1917.6563,1752.3594 1917.7969,1752.3906 1917.9688,1752.5 C1918.1875,1752.6719 1918.3125,1752.9375 1918.3125,1753.2031 C1918.3125,1753.5 1918.1719,1753.7813 1917.9063,1753.9375 C1917.75,1754.0156 1917.5938,1754.0469 1917.1719,1754.0469 L1916.3594,1754.0469 L1916.9688,1758.6719 L1918.2656,1754.8438 L1920.0313,1754.8438 L1921.3281,1758.6719 L1921.9219,1754.0469 L1921.0156,1754.0469 C1920.5938,1754.0469 1920.4063,1754.0156 1920.25,1753.9063 C1920.0313,1753.7344 1919.9063,1753.4844 1919.9063,1753.2031 C1919.9063,1752.9219 1920.0469,1752.625 1920.3125,1752.4688 C1920.4531,1752.375 1920.5781,1752.3594 1921.0156,1752.3594 L1923.25,1752.3594 C1923.7031,1752.3594 1923.8594,1752.3906 1924.0313,1752.5 C1924.2344,1752.6719 1924.375,1752.9375 1924.375,1753.2031 C1924.375,1753.6563 1924.0781,1753.9688 1923.5781,1754.0469 L1922.5469,1762.2656 L1920.6875,1762.2656 Z "/><text fill="#000000" font-family="sans-serif" font-size="14" lengthAdjust="spacingAndGlyphs" textLength="54" x="1951.5" y="1759.7656">Worker:</text><text fill="#000000" font-family="sans-serif" font-size="14" lengthAdjust="spacingAndGlyphs" textLength="85" x="1936" y="1776.0625">Result Store</text><text fill="#000000" font-family="sans-serif" font-size="14" lengthAdjust="spacingAndGlyphs" textLength="110" x="2078.5" y="113.292">DocumentStore</text><path d="M2118.5,64.2969 C2118.5,54.2969 2136.5,54.2969 2136.5,54.2969 C2136.5,54.2969 2154.5,54.2969 2154.5,64.2969 L2154.5,90.2969 C2154.5,100.2969 2136.5,100.2969 2136.5,100.2969 C2136.5,100.2969 2118.5,100.2969 2118.5,90.2969 L2118.5,64.2969 " fill="#FEFECE" filter="url(#frce0ibyeq4lk)" style="stroke: #000000; stroke-width: 1.5;"/><path d="M2118.5,64.2969 C2118.5,74.2969 2136.5,74.2969 2136.5,74.2969 C2136.5,74.2969 2154.5,74.2969 2154.5,64.2969 " fill="none" style="stroke: #000000; stroke-width: 1.5;"/><text fill="#000000" font-family="sans-serif" font-size="14" lengthAdjust="spacingAndGlyphs" textLength="110" x="2078.5" y="1747.7607">DocumentStore</text><path d="M2118.5,1761.0625 C2118.5,1751.0625 2136.5,1751.0625 2136.5,1751.0625 C2136.5,1751.0625 2154.5,1751.0625 2154.5,1761.0625 L2154.5,1787.0625 C2154.5,1797.0625 2136.5,1797.0625 2136.5,1797.0625 C2136.5,1797.0625 2118.5,1797.0625 2118.5,1787.0625 L2118.5,1761.0625 " fill="#FEFECE" filter="url(#frce0ibyeq4lk)" style="stroke: #000000; stroke-width: 1.5;"/><path d="M2118.5,1761.0625 C2118.5,1771.0625 2136.5,1771.0625 2136.5,1771.0625 C2136.5,1771.0625 2154.5,1771.0625 2154.5,1761.0625 " fill="none" style="stroke: #000000; stroke-width: 1.5;"/><rect fill="none" height="265.3281" style="stroke: #000000; stroke-width: 2.0;" width="805" x="13" y="133.5938"/><polygon fill="#EEEEEE" points="13,133.5938,200,133.5938,200,140.5938,190,150.5938,13,150.5938,13,133.5938" style="stroke: #000000; stroke-width: 2.0;"/><text fill="#000000" font-family="sans-serif" font-size="13" font-weight="bold" lengthAdjust="spacingAndGlyphs" textLength="142" x="28" y="146.6606">Register repository</text><polygon fill="#A80036" points="501.5,167.7266,511.5,171.7266,501.5,175.7266,505.5,171.7266" style="stroke: #A80036; stroke-width: 1.0;"/><line style="stroke: #A80036; stroke-width: 1.0;" x1="61.5" x2="507.5" y1="171.7266" y2="171.7266"/><text fill="#000000" font-family="sans-serif" font-size="13" lengthAdjust="spacingAndGlyphs" textLength="238" x="68.5" y="166.7935">Send GET request to see repositories</text><polygon fill="#A80036" points="316.5,196.8594,306.5,200.8594,316.5,204.8594,312.5,200.8594" style="stroke: #A80036; stroke-width: 1.0;"/><line style="stroke: #A80036; stroke-width: 1.0;" x1="310.5" x2="512.5" y1="200.8594" y2="200.8594"/><text fill="#000000" font-family="sans-serif" font-size="13" lengthAdjust="spacingAndGlyphs" textLength="184" x="322.5" y="195.9263">Request OAuth access token</text><polygon fill="#A80036" points="501.5,225.9922,511.5,229.9922,501.5,233.9922,505.5,229.9922" style="stroke: #A80036; stroke-width: 1.0;"/><line style="stroke: #A80036; stroke-width: 1.0; stroke-dasharray: 2.0,2.0;" x1="305.5" x2="507.5" y1="229.9922" y2="229.9922"/><text fill="#000000" font-family="sans-serif" font-size="13" lengthAdjust="spacingAndGlyphs" textLength="182" x="312.5" y="225.0591">Return OAauth access token</text><polygon fill="#A80036" points="72.5,255.125,62.5,259.125,72.5,263.125,68.5,259.125" style="stroke: #A80036; stroke-width: 1.0;"/><line style="stroke: #A80036; stroke-width: 1.0; stroke-dasharray: 2.0,2.0;" x1="66.5" x2="512.5" y1="259.125" y2="259.125"/><text fill="#000000" font-family="sans-serif" font-size="13" lengthAdjust="spacingAndGlyphs" textLength="242" x="78.5" y="254.1919">Response: 200 OK - list of repositories</text><polygon fill="#A80036" points="501.5,284.2578,511.5,288.2578,501.5,292.2578,505.5,288.2578" style="stroke: #A80036; stroke-width: 1.0;"/><line style="stroke: #A80036; stroke-width: 1.0;" x1="61.5" x2="507.5" y1="288.2578" y2="288.2578"/><text fill="#000000" font-family="sans-serif" font-size="13" lengthAdjust="spacingAndGlyphs" textLength="262" x="68.5" y="283.3247">Send POST request to register repository</text><polygon fill="#A80036" points="705.5,328.3906,715.5,332.3906,705.5,336.3906,709.5,332.3906" style="stroke: #A80036; stroke-width: 1.0;"/><line style="stroke: #A80036; stroke-width: 1.0;" x1="513.5" x2="711.5" y1="332.3906" y2="332.3906"/><text fill="#000000" font-family="sans-serif" font-size="13" lengthAdjust="spacingAndGlyphs" textLength="180" x="520.5" y="312.4575">Store repository information</text><text fill="#000000" font-family="sans-serif" font-size="13" lengthAdjust="spacingAndGlyphs" textLength="167" x="520.5" y="327.5903">(incl. OAuth access token)</text><polygon fill="#A80036" points="524.5,357.6563,514.5,361.6563,524.5,365.6563,520.5,361.6563" style="stroke: #A80036; stroke-width: 1.0;"/><line style="stroke: #A80036; stroke-width: 1.0; stroke-dasharray: 2.0,2.0;" x1="518.5" x2="716.5" y1="361.6563" y2="361.6563"/><text fill="#000000" font-family="sans-serif" font-size="13" lengthAdjust="spacingAndGlyphs" textLength="43" x="530.5" y="356.7231">Stored</text><polygon fill="#A80036" points="72.5,386.7891,62.5,390.7891,72.5,394.7891,68.5,390.7891" style="stroke: #A80036; stroke-width: 1.0;"/><line style="stroke: #A80036; stroke-width: 1.0; stroke-dasharray: 2.0,2.0;" x1="66.5" x2="512.5" y1="390.7891" y2="390.7891"/><text fill="#000000" font-family="sans-serif" font-size="13" lengthAdjust="spacingAndGlyphs" textLength="262" x="78.5" y="385.856">Response: 200 OK - repository registered</text><polygon fill="#A80036" points="293.5,422.9219,303.5,426.9219,293.5,430.9219,297.5,426.9219" style="stroke: #A80036; stroke-width: 1.0;"/><line style="stroke: #A80036; stroke-width: 1.0;" x1="61.5" x2="299.5" y1="426.9219" y2="426.9219"/><text fill="#000000" font-family="sans-serif" font-size="13" lengthAdjust="spacingAndGlyphs" textLength="121" x="68.5" y="421.9888">Configure webhook</text><polygon fill="#A80036" points="293.5,452.0547,303.5,456.0547,293.5,460.0547,297.5,456.0547" style="stroke: #A80036; stroke-width: 1.0;"/><line style="stroke: #A80036; stroke-width: 1.0;" x1="61.5" x2="299.5" y1="456.0547" y2="456.0547"/><text fill="#000000" font-family="sans-serif" font-size="13" lengthAdjust="spacingAndGlyphs" textLength="84" x="68.5" y="451.1216">Push commit</text><rect fill="none" height="133.6641" style="stroke: #000000; stroke-width: 2.0;" width="905.5" x="255.5" y="471.1875"/><polygon fill="#EEEEEE" points="255.5,471.1875,555.5,471.1875,555.5,478.1875,545.5,488.1875,255.5,488.1875,255.5,471.1875" style="stroke: #000000; stroke-width: 2.0;"/><text fill="#000000" font-family="sans-serif" font-size="13" font-weight="bold" lengthAdjust="spacingAndGlyphs" textLength="255" x="270.5" y="484.2544">Receive Webhook from Repository</text><polygon fill="#A80036" points="501.5,505.3203,511.5,509.3203,501.5,513.3203,505.5,509.3203" style="stroke: #A80036; stroke-width: 1.0;"/><line style="stroke: #A80036; stroke-width: 1.0;" x1="305.5" x2="507.5" y1="509.3203" y2="509.3203"/><text fill="#000000" font-family="sans-serif" font-size="13" lengthAdjust="spacingAndGlyphs" textLength="184" x="312.5" y="504.3872">Send POST webhook request</text><polygon fill="#A80036" points="316.5,534.4531,306.5,538.4531,316.5,542.4531,312.5,538.4531" style="stroke: #A80036; stroke-width: 1.0;"/><line style="stroke: #A80036; stroke-width: 1.0; stroke-dasharray: 2.0,2.0;" x1="310.5" x2="512.5" y1="538.4531" y2="538.4531"/><text fill="#000000" font-family="sans-serif" font-size="13" lengthAdjust="spacingAndGlyphs" textLength="149" x="322.5" y="533.52">Response: 201 Created</text><polygon fill="#A80036" points="1048,563.5859,1058,567.5859,1048,571.5859,1052,567.5859" style="stroke: #A80036; stroke-width: 1.0;"/><line style="stroke: #A80036; stroke-width: 1.0;" x1="513.5" x2="1054" y1="567.5859" y2="567.5859"/><text fill="#000000" font-family="sans-serif" font-size="13" lengthAdjust="spacingAndGlyphs" textLength="160" x="520.5" y="562.6528">Publish: commit.received</text><polygon fill="#A80036" points="876.5,592.7188,886.5,596.7188,876.5,600.7188,880.5,596.7188" style="stroke: #A80036; stroke-width: 1.0;"/><line style="stroke: #A80036; stroke-width: 1.0;" x1="513.5" x2="882.5" y1="596.7188" y2="596.7188"/><text fill="#000000" font-family="sans-serif" font-size="13" lengthAdjust="spacingAndGlyphs" textLength="160" x="520.5" y="591.7856">Publish: commit.received</text><rect fill="none" height="191.9297" style="stroke: #000000; stroke-width: 2.0;" width="1645.5" x="255.5" y="618.8516"/><polygon fill="#EEEEEE" points="255.5,618.8516,521.5,618.8516,521.5,625.8516,511.5,635.8516,255.5,635.8516,255.5,618.8516" style="stroke: #000000; stroke-width: 2.0;"/><text fill="#000000" font-family="sans-serif" font-size="13" font-weight="bold" lengthAdjust="spacingAndGlyphs" textLength="221" x="270.5" y="631.9185">Set commit status to Pending</text><polygon fill="#A80036" points="1819.5,652.9844,1829.5,656.9844,1819.5,660.9844,1823.5,656.9844" style="stroke: #A80036; stroke-width: 1.0;"/><line style="stroke: #A80036; stroke-width: 1.0;" x1="1060" x2="1825.5" y1="656.9844" y2="656.9844"/><text fill="#000000" font-family="sans-serif" font-size="13" lengthAdjust="spacingAndGlyphs" textLength="124" x="1067" y="652.0513">Consume message</text><polygon fill="#A80036" points="728.5,682.1172,718.5,686.1172,728.5,690.1172,724.5,686.1172" style="stroke: #A80036; stroke-width: 1.0;"/><line style="stroke: #A80036; stroke-width: 1.0;" x1="722.5" x2="1830.5" y1="686.1172" y2="686.1172"/><text fill="#000000" font-family="sans-serif" font-size="13" lengthAdjust="spacingAndGlyphs" textLength="177" x="734.5" y="681.1841">Read repository information</text><polygon fill="#A80036" points="1819.5,711.25,1829.5,715.25,1819.5,719.25,1823.5,715.25" style="stroke: #A80036; stroke-width: 1.0;"/><line style="stroke: #A80036; stroke-width: 1.0; stroke-dasharray: 2.0,2.0;" x1="717.5" x2="1825.5" y1="715.25" y2="715.25"/><text fill="#000000" font-family="sans-serif" font-size="13" lengthAdjust="spacingAndGlyphs" textLength="187" x="724.5" y="710.3169">Return repository information</text><polygon fill="#A80036" points="316.5,740.3828,306.5,744.3828,316.5,748.3828,312.5,744.3828" style="stroke: #A80036; stroke-width: 1.0;"/><line style="stroke: #A80036; stroke-width: 1.0;" x1="310.5" x2="1830.5" y1="744.3828" y2="744.3828"/><text fill="#000000" font-family="sans-serif" font-size="13" lengthAdjust="spacingAndGlyphs" textLength="80" x="322.5" y="739.4497">POST Status</text><polygon fill="#A80036" points="1819.5,769.5156,1829.5,773.5156,1819.5,777.5156,1823.5,773.5156" style="stroke: #A80036; stroke-width: 1.0;"/><line style="stroke: #A80036; stroke-width: 1.0; stroke-dasharray: 2.0,2.0;" x1="305.5" x2="1825.5" y1="773.5156" y2="773.5156"/><text fill="#000000" font-family="sans-serif" font-size="13" lengthAdjust="spacingAndGlyphs" textLength="149" x="312.5" y="768.5825">Response: 201 Created</text><polygon fill="#A80036" points="1071,798.6484,1061,802.6484,1071,806.6484,1067,802.6484" style="stroke: #A80036; stroke-width: 1.0;"/><line style="stroke: #A80036; stroke-width: 1.0; stroke-dasharray: 2.0,2.0;" x1="1065" x2="1830.5" y1="802.6484" y2="802.6484"/><text fill="#000000" font-family="sans-serif" font-size="13" lengthAdjust="spacingAndGlyphs" textLength="23" x="1077" y="797.7153">Ack</text><polygon fill="#A80036" points="72.5,834.7813,62.5,838.7813,72.5,842.7813,68.5,838.7813" style="stroke: #A80036; stroke-width: 1.0;"/><line style="stroke: #A80036; stroke-width: 1.0;" x1="66.5" x2="304.5" y1="838.7813" y2="838.7813"/><text fill="#000000" font-family="sans-serif" font-size="13" lengthAdjust="spacingAndGlyphs" textLength="202" x="78.5" y="833.8481">Display commit status: Pending</text><rect fill="none" height="276.1953" style="stroke: #000000; stroke-width: 2.0;" width="1155" x="617" y="853.9141"/><polygon fill="#EEEEEE" points="617,853.9141,812,853.9141,812,860.9141,802,870.9141,617,870.9141,617,853.9141" style="stroke: #000000; stroke-width: 2.0;"/><text fill="#000000" font-family="sans-serif" font-size="13" font-weight="bold" lengthAdjust="spacingAndGlyphs" textLength="150" x="632" y="866.981">Run code inspection</text><polygon fill="#A80036" points="1231.5,888.0469,1241.5,892.0469,1231.5,896.0469,1235.5,892.0469" style="stroke: #A80036; stroke-width: 1.0;"/><line style="stroke: #A80036; stroke-width: 1.0;" x1="888.5" x2="1237.5" y1="892.0469" y2="892.0469"/><text fill="#000000" font-family="sans-serif" font-size="13" lengthAdjust="spacingAndGlyphs" textLength="124" x="895.5" y="887.1138">Consume message</text><polygon fill="#A80036" points="728.5,917.1797,718.5,921.1797,728.5,925.1797,724.5,921.1797" style="stroke: #A80036; stroke-width: 1.0;"/><line style="stroke: #A80036; stroke-width: 1.0;" x1="722.5" x2="1242.5" y1="921.1797" y2="921.1797"/><text fill="#000000" font-family="sans-serif" font-size="13" lengthAdjust="spacingAndGlyphs" textLength="177" x="734.5" y="916.2466">Read repository information</text><polygon fill="#A80036" points="1231.5,946.3125,1241.5,950.3125,1231.5,954.3125,1235.5,950.3125" style="stroke: #A80036; stroke-width: 1.0;"/><line style="stroke: #A80036; stroke-width: 1.0; stroke-dasharray: 2.0,2.0;" x1="717.5" x2="1237.5" y1="950.3125" y2="950.3125"/><text fill="#000000" font-family="sans-serif" font-size="13" lengthAdjust="spacingAndGlyphs" textLength="187" x="724.5" y="945.3794">Return repository information</text><line style="stroke: #A80036; stroke-width: 1.0;" x1="1243.5" x2="1285.5" y1="979.5781" y2="979.5781"/><line style="stroke: #A80036; stroke-width: 1.0;" x1="1285.5" x2="1285.5" y1="979.5781" y2="992.5781"/><line style="stroke: #A80036; stroke-width: 1.0;" x1="1244.5" x2="1285.5" y1="992.5781" y2="992.5781"/><polygon fill="#A80036" points="1254.5,988.5781,1244.5,992.5781,1254.5,996.5781,1250.5,992.5781" style="stroke: #A80036; stroke-width: 1.0;"/><text fill="#000000" font-family="sans-serif" font-size="13" lengthAdjust="spacingAndGlyphs" textLength="128" x="1250.5" y="974.5122">Checkout repository</text><line style="stroke: #A80036; stroke-width: 1.0;" x1="1243.5" x2="1285.5" y1="1021.7109" y2="1021.7109"/><line style="stroke: #A80036; stroke-width: 1.0;" x1="1285.5" x2="1285.5" y1="1021.7109" y2="1034.7109"/><line style="stroke: #A80036; stroke-width: 1.0;" x1="1244.5" x2="1285.5" y1="1034.7109" y2="1034.7109"/><polygon fill="#A80036" points="1254.5,1030.7109,1244.5,1034.7109,1254.5,1038.7109,1250.5,1034.7109" style="stroke: #A80036; stroke-width: 1.0;"/><text fill="#000000" font-family="sans-serif" font-size="13" lengthAdjust="spacingAndGlyphs" textLength="121" x="1250.5" y="1016.645">Runs code analysis</text><polygon fill="#A80036" points="1443.5,1059.7109,1453.5,1063.7109,1443.5,1067.7109,1447.5,1063.7109" style="stroke: #A80036; stroke-width: 1.0;"/><line style="stroke: #A80036; stroke-width: 1.0;" x1="1243.5" x2="1449.5" y1="1063.7109" y2="1063.7109"/><text fill="#000000" font-family="sans-serif" font-size="13" lengthAdjust="spacingAndGlyphs" textLength="188" x="1250.5" y="1058.7778">Publish: inspection.processed</text><polygon fill="#A80036" points="1651,1088.8438,1661,1092.8438,1651,1096.8438,1655,1092.8438" style="stroke: #A80036; stroke-width: 1.0;"/><line style="stroke: #A80036; stroke-width: 1.0;" x1="1243.5" x2="1657" y1="1092.8438" y2="1092.8438"/><text fill="#000000" font-family="sans-serif" font-size="13" lengthAdjust="spacingAndGlyphs" textLength="188" x="1250.5" y="1087.9106">Publish: inspection.processed</text><polygon fill="#A80036" points="899.5,1117.9766,889.5,1121.9766,899.5,1125.9766,895.5,1121.9766" style="stroke: #A80036; stroke-width: 1.0;"/><line style="stroke: #A80036; stroke-width: 1.0; stroke-dasharray: 2.0,2.0;" x1="893.5" x2="1242.5" y1="1121.9766" y2="1121.9766"/><text fill="#000000" font-family="sans-serif" font-size="13" lengthAdjust="spacingAndGlyphs" textLength="23" x="905.5" y="1117.0435">Ack</text><rect fill="none" height="191.9297" style="stroke: #000000; stroke-width: 2.0;" width="1645.5" x="255.5" y="1144.1094"/><polygon fill="#EEEEEE" points="255.5,1144.1094,516.5,1144.1094,516.5,1151.1094,506.5,1161.1094,255.5,1161.1094,255.5,1144.1094" style="stroke: #000000; stroke-width: 2.0;"/><text fill="#000000" font-family="sans-serif" font-size="13" font-weight="bold" lengthAdjust="spacingAndGlyphs" textLength="216" x="270.5" y="1157.1763">Set commit inspection status</text><polygon fill="#A80036" points="1819.5,1178.2422,1829.5,1182.2422,1819.5,1186.2422,1823.5,1182.2422" style="stroke: #A80036; stroke-width: 1.0;"/><line style="stroke: #A80036; stroke-width: 1.0;" x1="1455.5" x2="1825.5" y1="1182.2422" y2="1182.2422"/><text fill="#000000" font-family="sans-serif" font-size="13" lengthAdjust="spacingAndGlyphs" textLength="124" x="1462.5" y="1177.3091">Consume message</text><polygon fill="#A80036" points="728.5,1207.375,718.5,1211.375,728.5,1215.375,724.5,1211.375" style="stroke: #A80036; stroke-width: 1.0;"/><line style="stroke: #A80036; stroke-width: 1.0;" x1="722.5" x2="1830.5" y1="1211.375" y2="1211.375"/><text fill="#000000" font-family="sans-serif" font-size="13" lengthAdjust="spacingAndGlyphs" textLength="177" x="734.5" y="1206.4419">Read repository information</text><polygon fill="#A80036" points="1819.5,1236.5078,1829.5,1240.5078,1819.5,1244.5078,1823.5,1240.5078" style="stroke: #A80036; stroke-width: 1.0;"/><line style="stroke: #A80036; stroke-width: 1.0; stroke-dasharray: 2.0,2.0;" x1="717.5" x2="1825.5" y1="1240.5078" y2="1240.5078"/><text fill="#000000" font-family="sans-serif" font-size="13" lengthAdjust="spacingAndGlyphs" textLength="187" x="724.5" y="1235.5747">Return repository information</text><polygon fill="#A80036" points="316.5,1265.6406,306.5,1269.6406,316.5,1273.6406,312.5,1269.6406" style="stroke: #A80036; stroke-width: 1.0;"/><line style="stroke: #A80036; stroke-width: 1.0;" x1="310.5" x2="1830.5" y1="1269.6406" y2="1269.6406"/><text fill="#000000" font-family="sans-serif" font-size="13" lengthAdjust="spacingAndGlyphs" textLength="80" x="322.5" y="1264.7075">POST Status</text><polygon fill="#A80036" points="1819.5,1294.7734,1829.5,1298.7734,1819.5,1302.7734,1823.5,1298.7734" style="stroke: #A80036; stroke-width: 1.0;"/><line style="stroke: #A80036; stroke-width: 1.0; stroke-dasharray: 2.0,2.0;" x1="305.5" x2="1825.5" y1="1298.7734" y2="1298.7734"/><text fill="#000000" font-family="sans-serif" font-size="13" lengthAdjust="spacingAndGlyphs" textLength="149" x="312.5" y="1293.8403">Response: 201 Created</text><polygon fill="#A80036" points="1466.5,1323.9063,1456.5,1327.9063,1466.5,1331.9063,1462.5,1327.9063" style="stroke: #A80036; stroke-width: 1.0;"/><line style="stroke: #A80036; stroke-width: 1.0; stroke-dasharray: 2.0,2.0;" x1="1460.5" x2="1830.5" y1="1327.9063" y2="1327.9063"/><text fill="#000000" font-family="sans-serif" font-size="13" lengthAdjust="spacingAndGlyphs" textLength="23" x="1472.5" y="1322.9731">Ack</text><polygon fill="#A80036" points="72.5,1360.0391,62.5,1364.0391,72.5,1368.0391,68.5,1364.0391" style="stroke: #A80036; stroke-width: 1.0;"/><line style="stroke: #A80036; stroke-width: 1.0;" x1="66.5" x2="304.5" y1="1364.0391" y2="1364.0391"/><text fill="#000000" font-family="sans-serif" font-size="13" lengthAdjust="spacingAndGlyphs" textLength="143" x="78.5" y="1359.106">Display commit status</text><rect fill="none" height="133.6641" style="stroke: #000000; stroke-width: 2.0;" width="650.5" x="1554" y="1379.1719"/><polygon fill="#EEEEEE" points="1554,1379.1719,1749,1379.1719,1749,1386.1719,1739,1396.1719,1554,1396.1719,1554,1379.1719" style="stroke: #000000; stroke-width: 2.0;"/><text fill="#000000" font-family="sans-serif" font-size="13" font-weight="bold" lengthAdjust="spacingAndGlyphs" textLength="150" x="1569" y="1392.2388">Store commit status</text><polygon fill="#A80036" points="1956.5,1413.3047,1966.5,1417.3047,1956.5,1421.3047,1960.5,1417.3047" style="stroke: #A80036; stroke-width: 1.0;"/><line style="stroke: #A80036; stroke-width: 1.0;" x1="1663" x2="1962.5" y1="1417.3047" y2="1417.3047"/><text fill="#000000" font-family="sans-serif" font-size="13" lengthAdjust="spacingAndGlyphs" textLength="124" x="1670" y="1412.3716">Consume message</text><polygon fill="#A80036" points="2124.5,1442.4375,2134.5,1446.4375,2124.5,1450.4375,2128.5,1446.4375" style="stroke: #A80036; stroke-width: 1.0;"/><line style="stroke: #A80036; stroke-width: 1.0;" x1="1968.5" x2="2130.5" y1="1446.4375" y2="1446.4375"/><text fill="#000000" font-family="sans-serif" font-size="13" lengthAdjust="spacingAndGlyphs" textLength="144" x="1975.5" y="1441.5044">Store result document</text><polygon fill="#A80036" points="1979.5,1471.5703,1969.5,1475.5703,1979.5,1479.5703,1975.5,1475.5703" style="stroke: #A80036; stroke-width: 1.0;"/><line style="stroke: #A80036; stroke-width: 1.0; stroke-dasharray: 2.0,2.0;" x1="1973.5" x2="2135.5" y1="1475.5703" y2="1475.5703"/><text fill="#000000" font-family="sans-serif" font-size="13" lengthAdjust="spacingAndGlyphs" textLength="43" x="1985.5" y="1470.6372">Stored</text><polygon fill="#A80036" points="1674,1500.7031,1664,1504.7031,1674,1508.7031,1670,1504.7031" style="stroke: #A80036; stroke-width: 1.0;"/><line style="stroke: #A80036; stroke-width: 1.0; stroke-dasharray: 2.0,2.0;" x1="1668" x2="1967.5" y1="1504.7031" y2="1504.7031"/><text fill="#000000" font-family="sans-serif" font-size="13" lengthAdjust="spacingAndGlyphs" textLength="23" x="1680" y="1499.77">Ack</text><polygon fill="#A80036" points="293.5,1536.8359,303.5,1540.8359,293.5,1544.8359,297.5,1540.8359" style="stroke: #A80036; stroke-width: 1.0;"/><line style="stroke: #A80036; stroke-width: 1.0;" x1="61.5" x2="299.5" y1="1540.8359" y2="1540.8359"/><text fill="#000000" font-family="sans-serif" font-size="13" lengthAdjust="spacingAndGlyphs" textLength="184" x="68.5" y="1535.9028">See details of commit status</text><polygon fill="#A80036" points="72.5,1565.9688,62.5,1569.9688,72.5,1573.9688,68.5,1569.9688" style="stroke: #A80036; stroke-width: 1.0;"/><line style="stroke: #A80036; stroke-width: 1.0;" x1="66.5" x2="304.5" y1="1569.9688" y2="1569.9688"/><text fill="#000000" font-family="sans-serif" font-size="13" lengthAdjust="spacingAndGlyphs" textLength="220" x="78.5" y="1565.0356">Redirects to inspection detail page</text><rect fill="none" height="133.6641" style="stroke: #000000; stroke-width: 2.0;" width="2191.5" x="13" y="1585.1016"/><polygon fill="#EEEEEE" points="13,1585.1016,361,1585.1016,361,1592.1016,351,1602.1016,13,1602.1016,13,1585.1016" style="stroke: #000000; stroke-width: 2.0;"/><text fill="#000000" font-family="sans-serif" font-size="13" font-weight="bold" lengthAdjust="spacingAndGlyphs" textLength="303" x="28" y="1598.1685">Handle request to display commit status</text><polygon fill="#A80036" points="501.5,1619.2344,511.5,1623.2344,501.5,1627.2344,505.5,1623.2344" style="stroke: #A80036; stroke-width: 1.0;"/><line style="stroke: #A80036; stroke-width: 1.0;" x1="61.5" x2="507.5" y1="1623.2344" y2="1623.2344"/><text fill="#000000" font-family="sans-serif" font-size="13" lengthAdjust="spacingAndGlyphs" textLength="115" x="68.5" y="1618.3013">Send GET request</text><polygon fill="#A80036" points="2124.5,1648.3672,2134.5,1652.3672,2124.5,1656.3672,2128.5,1652.3672" style="stroke: #A80036; stroke-width: 1.0;"/><line style="stroke: #A80036; stroke-width: 1.0;" x1="513.5" x2="2130.5" y1="1652.3672" y2="1652.3672"/><text fill="#000000" font-family="sans-serif" font-size="13" lengthAdjust="spacingAndGlyphs" textLength="223" x="520.5" y="1647.4341">Requests stored document by uuid</text><polygon fill="#A80036" points="524.5,1677.5,514.5,1681.5,524.5,1685.5,520.5,1681.5" style="stroke: #A80036; stroke-width: 1.0;"/><line style="stroke: #A80036; stroke-width: 1.0; stroke-dasharray: 2.0,2.0;" x1="518.5" x2="2135.5" y1="1681.5" y2="1681.5"/><text fill="#000000" font-family="sans-serif" font-size="13" lengthAdjust="spacingAndGlyphs" textLength="163" x="530.5" y="1676.5669">Returns stored document</text><polygon fill="#A80036" points="72.5,1706.6328,62.5,1710.6328,72.5,1714.6328,68.5,1710.6328" style="stroke: #A80036; stroke-width: 1.0;"/><line style="stroke: #A80036; stroke-width: 1.0; stroke-dasharray: 2.0,2.0;" x1="66.5" x2="512.5" y1="1710.6328" y2="1710.6328"/><text fill="#000000" font-family="sans-serif" font-size="13" lengthAdjust="spacingAndGlyphs" textLength="240" x="78.5" y="1705.6997">Response: 200 OK - inspection details</text><!--
@startuml
title flow diagram

actor Developer
actor Repository

collections API as "Worker:\nAPI" << (W,#59aad6) >>

participant RepositoryConfigStore as "Service:\nRepository Config Store"

participant QueueRunInspection as "Queue:\nrunInspection" << (Q,#FF6600) >>
participant QueueSendStatusPending as "Queue:\nsendStatusPending" << (Q,#FF6600) >>

group Register repository

    Developer -> API: Send GET request to see repositories
    API -> Repository: Request OAuth access token
    Repository - - -> API: Return OAauth access token
    API - - -> Developer: Response: 200 OK - list of repositories

    Developer -> API: Send POST request to register repository
    API -> RepositoryConfigStore: Store repository information\n(incl. OAuth access token)
    RepositoryConfigStore - - -> API: Stored
    API - - -> Developer: Response: 200 OK - repository registered

end

Developer -> Repository: Configure webhook
Developer -> Repository: Push commit

group Receive Webhook from Repository

    Repository -> API: Send POST webhook request
    API - - -> Repository: Response: 201 Created

    API -> QueueSendStatusPending: Publish: commit.received
    API -> QueueRunInspection: Publish: commit.received

end

group Set commit status to Pending

    collections Fixer as "Worker:\nCode Fixer (PHP)" << (W,#59aad6) >>

    participant QueueSendInspectionStatus as "Queue:\nsendInspectionStatus" << (Q,#FF6600) >>
    participant QueueStoreInspectionResult as "Queue:\nstoreInspectionResult" << (Q,#FF6600) >>

    collections StatusAPI as "Worker:\nStatus API" << (W,#59aad6) >>

    QueueSendStatusPending -> StatusAPI: Consume message
    StatusAPI -> RepositoryConfigStore: Read repository information
    RepositoryConfigStore - -> StatusAPI: Return repository information
    StatusAPI -> Repository: POST Status
    Repository - -> StatusAPI: Response: 201 Created
    StatusAPI - - -> QueueSendStatusPending: Ack

end

Repository -> Developer: Display commit status: Pending

group Run code inspection

    QueueRunInspection -> Fixer: Consume message
    Fixer -> RepositoryConfigStore: Read repository information
    RepositoryConfigStore - -> Fixer: Return repository information
    Fixer -> Fixer: Checkout repository
    Fixer -> Fixer: Runs code analysis
    Fixer -> QueueSendInspectionStatus: Publish: inspection.processed
    Fixer -> QueueStoreInspectionResult: Publish: inspection.processed
    Fixer - - -> QueueRunInspection: Ack

end

group Set commit inspection status

    QueueSendInspectionStatus -> StatusAPI: Consume message
    StatusAPI -> RepositoryConfigStore: Read repository information
    RepositoryConfigStore - -> StatusAPI: Return repository information
    StatusAPI -> Repository: POST Status
    Repository - -> StatusAPI: Response: 201 Created
    StatusAPI - - -> QueueSendInspectionStatus: Ack

end

Repository -> Developer: Display commit status

group Store commit status

    collections ResultStore as "Worker:\nResult Store" << (W,#59aad6) >>
    database DocumentStore

    QueueStoreInspectionResult -> ResultStore: Consume message
    ResultStore -> DocumentStore: Store result document
    DocumentStore - - -> ResultStore: Stored
    ResultStore - - -> QueueStoreInspectionResult: Ack

end

Developer -> Repository: See details of commit status
Repository -> Developer: Redirects to inspection detail page

group Handle request to display commit status

    Developer -> API: Send GET request
    API -> DocumentStore: Requests stored document by uuid
    DocumentStore - - -> API: Returns stored document
    API - - -> Developer: Response: 200 OK - inspection details

end
@enduml

PlantUML version 1.2017.16(Sun Sep 03 10:53:37 UTC 2017)
(GPL source distribution)
Java Runtime: Java(TM) SE Runtime Environment
JVM: Java HotSpot(TM) 64-Bit Server VM
Java Version: 1.7.0_25-b15
Operating System: Linux
Default Encoding: UTF-8
Language: en
Country: US
--></g></svg>